# xmcd
#
# Track frame offsets:
#	150
#	16463
#	32732
#	58166
#	75800
#	95425
#	114788
#	127371
#	149695
#	169853
#	188134
#	201777
#	216763
#	240171
#	255540
#	268180
#	285592
#	296112
#	333594
#
# Disc length: 4669 seconds
#
# Revision: 0
# Processed by: cddbd v1.5.2PL0 Copyright (c) Steve Scherf et al.
# Submitted via: EasyCDDAExtractor 12.1.0.1
#
DISCID=1d123b13
DTITLE=Various Artist - 워너뮤직의 숨은 팝 걸작 CD2
DYEAR=1900
DGENRE=pop
TTITLE0=Linda Ronstadt - After The Gold Rush
TTITLE1=Lobo - Don't Expect Me To Be Your Friend
TTITLE2=George Benson - The Greatest Love Of All
TTITLE3=Maria Muldaur - Midnight At The Oasis
TTITLE4=Detroit Spinners - Could It Be I'm Falling In Love
TTITLE5=Matt Bianco - More Than I Can Bear
TTITLE6=The Monkees - Last Train To Clarksville
TTITLE7=Tanita Tikaram - Twist In My Sobriety
TTITLE8=Brenda Russell/Michael Franks - When I Give My Love To You
TTITLE9=Beth Nielsen Chapman - Say Goodnight
TTITLE10=Randy Newman - Short People
TTITLE11=Love - Alone Again Or
TTITLE12=James Gang - Alexis
TTITLE13=k.d. lang - Black Coffee
TTITLE14=Ray Charles - It Had To Be You
TTITLE15=Harry Chapin - Cat's In The Cradle
TTITLE16=Aretha Franklin - Think
TTITLE17=Chic - Good Times
TTITLE18=Judy Collins - Turn, Turn, Turn
EXTD=
EXTT0=
EXTT1=
EXTT2=
EXTT3=
EXTT4=
EXTT5=
EXTT6=
EXTT7=
EXTT8=
EXTT9=
EXTT10=
EXTT11=
EXTT12=
EXTT13=
EXTT14=
EXTT15=
EXTT16=
EXTT17=
EXTT18=
PLAYORDER=
